<svg width="41" height="41" viewBox="0 0 41 41" fill="none" xmlns="http://www.w3.org/2000/svg">
<path d="M17.3001 24.2247L13.5411 20.4657C12.9598 19.8844 12.0173 19.8844 11.436 20.4657C10.8547 21.047 10.8547 21.9894 11.436 22.5707L16.2369 27.3717C16.8241 27.9589 17.7762 27.9589 18.3634 27.3717L29.7803 15.9548C30.3616 15.3735 30.3616 14.431 29.7803 13.8497C29.199 13.2684 28.2565 13.2684 27.6752 13.8497L17.3001 24.2247Z" fill="#4DC3A0"/>
<path d="M25.0788 3C28.911 3 30.739 3.35301 32.6378 4.36854C34.3554 5.2871 35.7129 6.64458 36.6315 8.36215C37.647 10.261 38 12.089 38 15.9212V25.0788C38 28.911 37.647 30.739 36.6315 32.6378C35.7129 34.3554 34.3554 35.7129 32.6378 36.6315C30.739 37.647 28.911 38 25.0788 38H15.9212C12.089 38 10.261 37.647 8.36215 36.6315C6.64458 35.7129 5.2871 34.3554 4.36854 32.6378C3.35301 30.739 3 28.911 3 25.0788V15.9212C3 12.089 3.35301 10.261 4.36854 8.36215C5.2871 6.64458 6.64458 5.2871 8.36215 4.36854C10.261 3.35301 12.089 3 15.9212 3H25.0788ZM25.0788 6.18182H15.9212C12.5694 6.18182 11.2376 6.439 9.8627 7.1743C8.69961 7.79633 7.79633 8.69961 7.1743 9.8627C6.439 11.2376 6.18182 12.5694 6.18182 15.9212V25.0788C6.18182 28.4306 6.439 29.7624 7.1743 31.1373C7.79633 32.3004 8.69961 33.2037 9.8627 33.8257C11.2376 34.561 12.5694 34.8182 15.9212 34.8182H25.0788C28.4306 34.8182 29.7624 34.561 31.1373 33.8257C32.3004 33.2037 33.2037 32.3004 33.8257 31.1373C34.561 29.7624 34.8182 28.4306 34.8182 25.0788V15.9212C34.8182 12.5694 34.561 11.2376 33.8257 9.8627C33.2037 8.69961 32.3004 7.79633 31.1373 7.1743C29.7624 6.439 28.4306 6.18182 25.0788 6.18182Z" fill="#4DC3A0"/>
</svg>
