<svg width="28" height="28" viewBox="0 0 28 28"  xmlns="http://www.w3.org/2000/svg">
<rect width="28" height="28" fill="none"/>
<path d="M18.2905 2.57288C19.0231 2.96445 19.6046 3.54566 19.9964 4.27782C20.3935 5.02004 20.5486 5.73527 20.5676 7.05727L20.5696 10.4233C20.5696 11.033 20.075 11.5273 19.4649 11.5273C18.8548 11.5273 18.3603 11.033 18.3603 10.4233L18.3603 7.35008L18.3551 6.88887C18.3341 6.05045 18.2462 5.68912 18.0482 5.31917C17.8623 4.97181 17.5962 4.7058 17.2487 4.52003C16.8785 4.32218 16.517 4.23434 15.6781 4.21328L15.2167 4.20812L9.35288 4.20812C8.37626 4.20812 7.90232 4.27069 7.57624 4.39891L7.49759 4.43233L7.3209 4.52003C6.97336 4.7058 6.70722 4.97181 6.52135 5.31917C6.3069 5.71995 6.22163 6.11061 6.21054 7.10869L6.20927 18.7311L6.21444 19.1923C6.23551 20.0307 6.32339 20.3921 6.52135 20.762C6.70722 21.1094 6.97336 21.3754 7.3209 21.5611C7.72222 21.7757 8.09432 21.8555 9.07601 21.871C9.686 21.8806 10.1727 22.3826 10.1631 22.9923C10.1535 23.602 9.65125 24.0884 9.04125 24.0788C7.73296 24.0583 7.02258 23.9058 6.27901 23.5083C5.54646 23.1167 4.96495 22.5355 4.57318 21.8034C4.17603 21.0611 4.02092 20.3459 4.00201 19.0239L4 7.35008C4 5.83731 4.14766 5.07305 4.57318 4.27782C4.92142 3.62701 5.41958 3.09547 6.05977 2.70041L6.30648 2.55869L6.5424 2.44158C7.18899 2.14423 7.88748 2.01958 9.05185 2.00216L9.35288 2L15.2167 2C16.7302 2 17.4949 2.14758 18.2905 2.57288Z" />
<path fill-rule="evenodd" clip-rule="evenodd" d="M24 20.4797H10.9276C11.4535 23.6127 14.1797 26 17.4638 26C20.7479 26 23.4741 23.6127 24 20.4797ZM24 18.2716H10.9276C11.4535 15.1386 14.1797 12.7513 17.4638 12.7513C20.7479 12.7513 23.4741 15.1386 24 18.2716Z" />
</svg>
