<svg width="28" height="28" viewBox="0 0 28 28" xmlns="http://www.w3.org/2000/svg">
<rect width="28" height="28" fill="none"/>
<path d="M14.4848 9.15152C14.4848 8.54902 13.9964 8.06061 13.3939 8.06061C12.7914 8.06061 12.303 8.54902 12.303 9.15152V14.6061C12.303 15.0608 12.5851 15.4678 13.0109 15.6275L17.8594 17.4457C18.4235 17.6572 19.0523 17.3714 19.2639 16.8073C19.4754 16.2432 19.1896 15.6143 18.6255 15.4028L14.4848 13.8501V9.15152Z"/>
<path fill-rule="evenodd" clip-rule="evenodd" d="M14 2C7.37258 2 2 7.37258 2 14C2 20.6274 7.37258 26 14 26C20.6274 26 26 20.6274 26 14C26 7.37258 20.6274 2 14 2ZM4.18182 14C4.18182 8.57757 8.57757 4.18182 14 4.18182C19.4224 4.18182 23.8182 8.57757 23.8182 14C23.8182 19.4224 19.4224 23.8182 14 23.8182C8.57757 23.8182 4.18182 19.4224 4.18182 14Z"/>
</svg>
